<svg width="136" height="147" viewBox="0 0 136 147" fill="none" xmlns="http://www.w3.org/2000/svg">
<path fill-rule="evenodd" clip-rule="evenodd" d="M114.257 100.867C86.1153 105.755 72.2493 105.694 53.3668 96.9989C52.8758 98.0858 51.6526 98.6442 49.6673 98.745C48.3265 98.813 47.0047 98.6674 45.6761 98.521C45.4475 98.4958 45.2186 98.4706 44.9894 98.4465C41.2549 98.0528 39.2809 96.127 38.5625 92.9546C38.4202 92.3262 38.2473 91.7021 37.8856 91.1431C37.8673 91.1147 37.8489 91.0857 37.8304 91.0562C37.6374 90.7503 37.4208 90.4069 36.9584 90.4717C36.4586 90.5417 36.3802 90.9846 36.3154 91.35L36.3135 91.3612C36.2117 91.9351 36.206 92.5161 36.2003 93.0972C36.1928 93.8592 36.1853 94.6215 35.9613 95.3686C35.9452 95.4225 35.9292 95.4769 35.9132 95.5316C35.6882 96.2995 35.4469 97.1227 34.4132 97.2346C33.1421 97.3721 32.7664 96.4483 32.4168 95.4228C32.3181 95.1836 32.2506 94.9893 32.1795 94.7849C32.1329 94.6509 32.0848 94.5124 32.0254 94.3541C31.8088 93.7755 31.7662 93.2286 31.7226 92.6688C31.695 92.3135 31.6669 91.953 31.5937 91.5759C31.55 91.3392 31.5234 91.2455 31.4333 91.0168C31.2788 90.7014 31.1788 90.5251 30.9837 90.2255C27.8771 85.7542 25.1351 84.6849 20.021 85.8674C19.9378 85.8867 19.854 85.9059 19.77 85.9251C17.9505 86.342 15.9895 86.7914 15.5278 88.6555C15.0548 90.5654 16.6555 91.8825 18.1567 92.9783C19.4704 93.937 20.4716 95.0468 21.2635 96.5352C22.6861 98.8581 24.0254 101.044 25.4726 103.182C27.1555 105.669 28.2712 108.32 28.0576 111.359C27.7371 115.92 28.315 120.433 29.3631 124.904C30.0476 127.824 31.6924 130.165 34.5813 131.631C37.8445 133.287 41.3572 134.373 45.1636 134.405C46.6111 134.417 48.0062 134.569 49.5453 135.01C50.7298 134.994 51.813 135.065 52.9402 135.14C53.3456 135.167 53.7567 135.194 54.1803 135.218C54.6677 135.292 55.1007 135.423 55.53 135.553C56.0494 135.71 56.5635 135.865 57.1624 135.917C57.5531 135.938 57.9291 135.94 58.2987 135.941C59.1339 135.945 59.936 135.948 60.7988 136.169C61.013 136.202 61.2156 136.232 61.4126 136.261C61.9359 136.337 62.4194 136.408 62.9758 136.528C63.5188 136.599 63.9097 136.609 64.4408 136.55C64.9045 136.519 65.2032 136.645 65.5844 136.806C65.6251 136.823 65.6668 136.84 65.7097 136.858L65.7727 136.868C66.4159 136.968 66.9406 137.05 67.5289 137.351C67.8157 137.492 67.983 137.57 68.2871 137.689C70.546 138.219 72.1437 139.415 73.6946 140.9C73.8226 141.001 73.9355 141.102 74.0468 141.202C74.3225 141.448 74.5882 141.686 75.049 141.904C76.6068 143.311 77.4901 144.833 78.0876 146.572C78.1385 146.59 78.1867 146.608 78.2329 146.624C78.4744 146.712 78.6658 146.781 78.9492 146.849C79.0006 146.85 79.0483 146.85 79.0938 146.851C79.318 146.853 79.4892 146.855 79.791 146.849C80.0707 146.84 80.3484 146.831 80.6244 146.822C83.0166 146.742 85.278 146.666 87.587 146.884C87.651 146.857 87.7913 146.869 87.9011 146.99C88.0521 147.022 88.1262 146.97 88.2268 146.899C88.2464 146.885 88.2671 146.871 88.2896 146.856C88.3149 146.853 88.3479 146.859 88.3859 146.866C88.448 146.878 88.5238 146.892 88.6026 146.872C88.9059 146.831 89.0776 146.852 89.3065 146.88L89.3075 146.881C89.3701 146.855 89.5064 146.869 89.6164 146.99C89.7504 147.018 89.8237 146.98 89.9395 146.919C89.9798 146.898 90.0251 146.875 90.08 146.85C90.4124 146.848 90.6026 146.858 90.9027 146.99C91.0367 147.018 91.11 146.98 91.2258 146.919C91.266 146.898 91.3114 146.875 91.3662 146.85C91.6987 146.848 91.8888 146.858 92.1885 146.99C92.3277 147.02 92.4016 146.978 92.5142 146.914C92.5475 146.895 92.5843 146.874 92.6271 146.852C92.7158 146.855 92.792 146.86 92.8644 146.864C93.0126 146.873 93.1452 146.881 93.3379 146.875C93.9283 146.702 94.373 146.783 94.8788 146.881C94.9423 146.856 95.0803 146.869 95.1899 146.99C95.3286 147.02 95.4025 146.978 95.5152 146.914C95.5492 146.895 95.5868 146.874 95.6307 146.852C95.6766 146.852 95.7193 146.853 95.7599 146.853C95.9638 146.855 96.1169 146.856 96.3784 146.814C98.2451 146.842 98.3426 145.741 98.4278 144.779C98.4399 144.643 98.4517 144.51 98.4683 144.382C98.7606 142.142 99.5243 140.041 100.38 137.943C100.661 137.254 100.946 136.565 101.231 135.877C102.329 133.224 103.427 130.572 104.311 127.856C104.648 126.817 104.955 125.769 105.218 124.708C105.239 124.622 105.271 124.532 105.303 124.442C105.428 124.095 105.555 123.74 105.078 123.524C104.461 123.244 103.956 123.619 103.647 124.065C103.399 124.423 103.178 124.797 102.958 125.17C102.647 125.698 102.336 126.225 101.949 126.704C101.331 127.469 100.889 128.324 100.445 129.182C99.7952 130.44 99.1425 131.703 97.9263 132.693C97.3777 132.948 97.2363 133.375 97.0972 133.795C97.0012 134.085 96.9062 134.372 96.6792 134.596C96.2497 135.02 96.0065 134.903 95.9906 134.235C96.022 134.091 96.0489 133.979 96.0762 133.865C96.1006 133.764 96.1254 133.661 96.1542 133.532C96.1541 133.362 96.1404 133.28 96.1134 133.118L96.1132 133.117C96.1089 133.092 96.1043 133.065 96.0994 133.035C96.7803 131.227 97.4786 129.537 98.173 127.856C98.2449 127.682 98.3169 127.508 98.3887 127.334C98.5506 126.941 98.6954 126.543 98.8408 126.143C99.2851 124.92 99.7354 123.68 100.698 122.552C101.817 120.464 103.185 118.629 104.547 116.801C104.812 116.446 105.077 116.091 105.34 115.734C108.808 111.026 111.752 106.014 114.257 100.867Z" fill="#FDEBE4"/>
<path d="M53.169 93.5426C53.243 93.7518 53.2771 93.8349 53.3668 94.0438C53.6961 95.2855 53.6992 96.2633 53.3668 96.9989C72.2493 105.694 86.1153 105.755 114.257 100.867C117.25 94.7176 118.769 88.2562 117.524 81.401C117.149 79.3327 116.65 77.4622 115.993 75.7784C113.644 69.7611 109.264 66.1264 101.192 64.3639C95.2985 63.0772 89.5302 64.058 83.8844 65.4995C76.1729 67.4687 68.9377 70.5508 61.7263 73.652C56.9029 75.7264 51.9148 77.4957 47.3259 80.0057C45.8822 80.7953 44.7283 81.7938 43.8583 83.0719C42.0013 85.8 43.0473 88.0505 46.4664 88.8253C48.3151 89.2443 50.3045 89.4426 51.681 91.0873C51.8938 91.3497 52.007 91.5003 52.2019 91.7608C52.3441 91.939 52.4029 92.0083 52.5568 92.1741C53.0687 92.566 53.0592 93.0046 53.169 93.5426Z" fill="#FDEBE4"/>
<path d="M121.467 145.37C119.217 145.486 117.08 145.519 114.745 145.528C114.477 145.464 114.408 145.425 114.362 145.277C114.413 144.997 114.44 144.825 114.453 144.524C113.886 143.698 114.025 142.953 114.214 142.188C115.277 137.894 115.75 133.501 116.942 129.228C117.045 128.858 117.063 128.466 117.22 128.109C117.454 127.581 117.638 126.933 118.429 126.94C119.298 126.947 119.603 127.584 119.77 128.225C120.402 130.649 120.896 133.1 121.107 135.58C121.216 136.854 121.625 138.091 121.618 139.526C121.795 140.161 121.742 140.645 121.636 141.263C121.619 141.576 121.637 141.752 121.694 142.058C121.735 142.364 121.737 142.539 121.707 142.845C121.353 143.735 121.969 144.53 121.467 145.37Z" fill="#FDEBE4"/>
<path d="M134.755 0.00184458C135.144 -0.00519863 135.335 0.00888812 135.668 0.0278113C135.849 7.71519 135.918 15.3977 135.92 23.0803C135.93 63.4292 135.923 103.778 135.924 144.127C135.924 144.831 135.959 145.535 136 146.42C135.508 146.678 134.994 146.756 134.325 146.839C132.24 146.686 130.306 146.796 128.197 146.819C127.607 146.85 127.194 146.845 126.626 146.844C126.384 146.828 126.297 146.808 126.078 146.767C125.637 146.706 125.329 146.667 124.869 146.593C123.936 145.903 124.035 145.03 124.089 144.216C124.386 139.793 123.535 135.425 123.344 131.031C122.943 121.804 123.392 112.678 126.472 103.703C129.368 95.2634 131.235 86.5862 131.371 77.5202C131.402 77.2431 131.419 77.133 131.472 76.8598C131.586 76.3749 131.763 76.078 131.831 75.5852C132.527 71.8742 132.346 68.2845 132.07 64.744C131.774 60.9456 131.47 57.1248 130.542 53.3726C130.015 51.2397 129.341 49.1798 128.183 47.0921C127.95 46.8077 127.845 46.6356 127.738 46.3127C127.655 45.7536 127.691 45.3042 127.183 44.8939C126.93 44.6049 126.799 44.3925 126.614 44.0717C126.387 43.6132 126.23 43.2537 125.777 42.9263C124.89 42.24 124.298 41.4873 123.626 40.6262C123.38 40.301 123.226 40.0757 122.926 39.7769C119.161 35.6894 114.349 33.4765 108.81 32.4259C103.004 31.3249 98.6661 28.4636 95.0981 24.2031C91.5503 19.9666 87.5964 16.0017 82.0897 13.5596C75.56 10.6638 68.7491 10.1254 61.6636 11.0209C58.7612 11.3877 55.8953 11.8491 53.106 12.681C47.9693 14.2131 44.1534 17.4918 40.4924 20.7758C35.0358 25.6706 30.2335 31.096 26.2893 37.0884C25.8518 37.753 25.4609 38.4333 25.0283 39.2621C22.2073 43.5394 19.3011 47.6085 17.2541 52.0949C16.7963 53.0985 16.332 54.1009 15.7907 55.068C14.7848 56.8649 13.2783 57.579 11.0993 57.2882C7.87952 56.8586 4.57209 56.7344 1.49836 55.1542C1.16088 54.991 0.977118 54.8849 0.674182 54.6765C0.389565 54.4464 0.279445 54.2826 0.315768 53.9782C-0.568909 51.8083 0.565266 50.1605 1.74749 48.5606C4.50395 44.8304 8.24872 41.7887 10.906 37.9815C16.9544 29.316 22.2007 20.2799 26.7938 10.9224C28.4761 7.49524 30.5797 4.23813 32.1898 0.769765C32.57 -0.0493374 33.5935 0.0336808 34.4583 0.0349017C37.7978 0.039785 41.1373 0.037813 44.4769 0.0379069C54.6157 0.0381419 64.7544 0.0383764 74.8931 0.0382356C84.7297 0.0380948 94.5663 0.0390808 104.403 0.0364982C114.454 0.0339156 124.504 0.0276706 134.755 0.00184458Z" fill="#FDEBE4"/>
<path d="M130.542 53.3726C130.015 51.2397 129.341 49.1798 128.183 47.0921C127.95 46.8077 127.845 46.6356 127.738 46.3127C127.655 45.7536 127.691 45.3042 127.183 44.8939C126.93 44.6049 126.799 44.3925 126.614 44.0717C126.387 43.6132 126.23 43.2537 125.777 42.9263C124.89 42.24 124.298 41.4873 123.626 40.6262C123.38 40.301 123.226 40.0757 122.926 39.7769C119.161 35.6894 114.349 33.4765 108.81 32.4259C103.004 31.3249 98.6661 28.4636 95.0981 24.2031C91.5503 19.9666 87.5964 16.0017 82.0897 13.5596C75.56 10.6638 68.7491 10.1254 61.6636 11.0209C58.7612 11.3877 55.8953 11.8491 53.106 12.681C47.9693 14.2131 44.1534 17.4918 40.4924 20.7758C35.0358 25.6706 30.2335 31.096 26.2893 37.0884C25.8518 37.753 25.4609 38.4333 25.0283 39.2621C22.2073 43.5394 19.3011 47.6085 17.2541 52.0949C16.7963 53.0985 16.332 54.1009 15.7907 55.068L28.298 59.8153L69.0512 48.5606L96.6717 50.8201L115.979 59.8153L130.542 53.3726Z" fill="#FDEBE4"/>
<path fill-rule="evenodd" clip-rule="evenodd" d="M20.1948 60.0458C20.179 60.07 20.162 60.096 20.1436 60.1243C19.6516 61.4647 18.8532 62.3516 17.6138 63.0175C16.0687 63.8478 14.8083 64.9888 14.1405 66.5424C13.1941 68.7441 14.3414 70.3543 16.9469 70.5639C21.7877 70.9534 25.2605 68.9563 27.9446 65.3685C28.0178 65.0357 28.0865 64.7113 28.1537 64.3937C28.3726 63.3601 28.5761 62.3995 28.867 61.4607L28.8737 61.439C29.2132 60.3428 29.6365 58.9761 31.1107 58.9943C32.5296 59.0118 33.0285 60.3314 33.445 61.4392C33.4648 61.4919 33.4688 61.551 33.4727 61.6095C33.4777 61.6836 33.4826 61.7568 33.5197 61.8147C33.9767 62.5284 33.9873 63.3163 33.9982 64.1319C34.0081 64.8758 34.0184 65.6428 34.368 66.3976C34.8946 65.8112 35.0857 65.2037 35.2673 64.6265C35.3531 64.3538 35.4368 64.0879 35.5527 63.8341C36.5884 61.567 38.1844 59.6872 41.139 59.7689C43.4731 59.8335 44.8964 58.9287 46.1314 57.3932C47.9619 55.1174 50.1427 53.1411 53.2602 52.4583C56.0159 51.8548 58.8494 51.4767 61.6727 51.194C69.1495 50.4454 76.6266 50.9209 84.0938 51.3957L84.4493 51.4183C88.9384 51.7037 93.3328 52.4471 97.6672 54.0632L101.27 49.5421C100.755 49.4352 100.241 49.3268 99.7292 49.2187C96.4871 48.5342 93.2983 47.861 90.0027 47.6434C84.6155 47.2878 79.2626 46.6472 73.9122 45.9715C73.3896 45.9055 72.8661 45.8379 72.3418 45.7701C68.0527 45.2155 63.7137 44.6546 59.4418 44.9694C52.0651 45.5131 44.6883 45.6508 37.3073 45.7885C35.8146 45.8164 34.3217 45.8442 32.8286 45.8754C27.8916 45.9786 25.5941 47.7742 24.3609 51.9978C24.2778 52.2823 24.1999 52.5697 24.1216 52.8583C23.6633 54.5485 23.1952 56.275 21.631 57.6552C21.4607 57.9948 21.3469 58.2215 21.1519 58.5536C21.1295 58.5794 21.1089 58.6027 21.0899 58.6242C20.9849 58.7431 20.9261 58.8096 20.8471 58.9524C20.7427 59.142 20.6506 59.2852 20.5556 59.433C20.5068 59.5088 20.4573 59.5858 20.405 59.6709C20.3485 59.8111 20.2964 59.8906 20.1948 60.0458Z" fill="#FDEBE4"/>
<path d="M106.707 50.4711C105.799 50.3453 105.076 50.2269 104.18 50.114C103.2 49.9361 102.232 49.7416 101.27 49.5421L97.6672 54.0632C100.674 55.0884 103.59 55.9578 106.345 57.1312C112.19 59.6206 117.702 62.5182 120.69 68.0686C121.493 69.561 122.365 71.0342 123.348 72.4359C125.372 75.3219 127.645 75.2561 129.651 72.1591C131.427 66.389 130.648 60.6596 130.765 54.8431C130.86 54.2157 130.706 53.7966 130.061 53.4601C128.811 51.9057 127.317 51.9697 125.58 52.3669C119.253 53.8138 113.201 52.6956 107.214 50.4995C107.062 50.42 106.977 50.4492 106.707 50.4711Z" fill="#FDEBE4"/>
<path d="M113.276 122.818C113.15 122.582 112.845 122.499 112.594 122.633L108.507 124.815C108.256 124.949 108.155 125.249 108.281 125.485C108.407 125.722 108.713 125.804 108.963 125.671L112.596 123.731L114.423 127.151C114.549 127.388 114.855 127.47 115.105 127.337C115.356 127.203 115.457 126.903 115.331 126.666L113.276 122.818ZM107.219 141.251L113.305 123.191L112.34 122.93L106.254 140.99L107.219 141.251Z" fill="black"/>
<path d="M120.292 103.071C120.162 102.837 119.856 102.758 119.607 102.896L115.559 105.138C115.311 105.275 115.215 105.577 115.345 105.811C115.475 106.046 115.781 106.125 116.03 105.987L119.628 103.994L121.509 107.392C121.639 107.626 121.946 107.705 122.194 107.567C122.443 107.43 122.539 107.128 122.409 106.893L120.292 103.071ZM114.709 121.085L120.327 103.445L119.358 103.196L113.74 120.836L114.709 121.085Z" fill="black"/>
<path d="M119.714 75.1027C119.439 75.1292 119.234 75.3733 119.258 75.648L119.639 80.1246C119.663 80.3993 119.905 80.6005 120.18 80.574C120.456 80.5475 120.66 80.3033 120.636 80.0286L120.297 76.0495L124.285 75.6657C124.56 75.6392 124.765 75.395 124.741 75.1203C124.718 74.8456 124.476 74.6444 124.2 74.6709L119.714 75.1027ZM120.193 98.3754C122.02 95.0846 123.718 90.7669 124.108 86.547C124.499 82.3213 123.581 78.1241 120.079 75.2144L119.434 75.9857C122.599 78.6155 123.485 82.4345 123.112 86.4662C122.738 90.5038 121.103 94.6848 119.319 97.8984L120.193 98.3754Z" fill="black"/>
<path d="M79.9342 57.8348C79.7254 58.0265 79.714 58.332 79.9086 58.5172L83.0804 61.535C83.2751 61.7202 83.6021 61.7149 83.8109 61.5233C84.0196 61.3316 84.0311 61.026 83.8364 60.8408L81.0171 58.1583L84.0411 55.3816C84.2499 55.1899 84.2613 54.8844 84.0667 54.6992C83.872 54.514 83.545 54.5193 83.3362 54.711L79.9342 57.8348ZM119.138 72.0039C115.406 65.143 110.5 61.4641 104.087 59.5591C97.7139 57.6663 89.8736 57.5333 80.3047 57.6876L80.2685 58.6526C89.8567 58.4981 97.5337 58.6408 103.727 60.4804C109.88 62.308 114.59 65.8185 118.211 72.4761L119.138 72.0039Z" fill="black"/>
</svg>
